<?xml version="1.0" encoding="UTF-8"?>
<svg version="1.1" xmlns="http://www.w3.org/2000/svg" width="109" height="109">
<path d="M0 0 C2.5 0.9375 2.5 0.9375 4 3 C4.61582733 5.99419494 4.87206945 8.94885644 5 12 C3.54257537 12.08096803 2.08387193 12.13917774 0.625 12.1875 C-0.18710937 12.22230469 -0.99921875 12.25710937 -1.8359375 12.29296875 C-2.55007812 12.19628906 -3.26421875 12.09960938 -4 12 C-4.66 11.01 -5.32 10.02 -6 9 C-6.66 9 -7.32 9 -8 9 C-10.27141454 14.39460953 -10.20413361 19.26157749 -10 25 C-9.01 25 -8.02 25 -7 25 C-6.67 24.34 -6.34 23.68 -6 23 C-6.66 22.34 -7.32 21.68 -8 21 C-7.34 19.02 -6.68 17.04 -6 15 C-1.71 15 2.58 15 7 15 C6.87625 13.453125 6.7525 11.90625 6.625 10.3125 C6.64259664 6.17728855 6.78092953 5.28085958 9.4375 1.875 C12.76704678 -0.33417796 15.93361219 -0.72405399 19.875 -0.484375 C23.47333839 0.33583449 24.98051521 2.00334516 27 5 C27.3125 8.3125 27.3125 8.3125 27 11 C19.49230769 11.36923077 19.49230769 11.36923077 17 9.5 C16.505 8.7575 16.505 8.7575 16 8 C17.08341118 11.34872546 18.2704481 13.32321846 20.5625 16.0625 C22.81164302 18.77300569 23.37667371 19.74329524 24 23 C25.27339482 20.48043257 26.54376642 17.95941351 27.8125 15.4375 C28.16892578 14.73302734 28.52535156 14.02855469 28.89257812 13.30273438 C31.09092409 8.92621075 33.11663926 4.52125402 35 0 C38.96 0 42.92 0 47 0 C47.33 8.58 47.66 17.16 48 26 C49.98 17.42 51.96 8.84 54 0 C64.55555556 0 64.55555556 0 70 3 C72.98231183 7.47346775 72.60106348 11.75572111 72 17 C69.68685081 21.89320022 66.73761056 24.4416903 62 27 C58.625 27.75 58.625 27.75 56 28 C56 29.98 56 31.96 56 34 C50.06 34 44.12 34 38 34 C38 32.68 38 31.36 38 30 C35.69 30 33.38 30 31 30 C30.67 31.32 30.34 32.64 30 34 C26 34 22 34 18 34 C16.85917969 34.08701172 16.85917969 34.08701172 15.6953125 34.17578125 C8.68908208 34.54845308 8.68908208 34.54845308 4.9375 31.5625 C4.298125 30.716875 3.65875 29.87125 3 29 C2.67 28.67 2.34 28.34 2 28 C1.21625 28.804375 0.4325 29.60875 -0.375 30.4375 C-4.42018613 34.38637217 -7.10506112 34.33648215 -12.58203125 34.2890625 C-15 34 -15 34 -17.5625 32.1875 C-20.99509377 26.96398773 -20.53867812 21.02272063 -20 15 C-18.38894694 9.14242121 -15.67825252 4.93958107 -11 1 C-7.54283087 -0.72858457 -3.7864115 -0.34360674 0 0 Z M59 8 C59.99 8.495 59.99 8.495 61 9 C60.34 12.3 59.68 15.6 59 19 C62.16501727 18.32510046 62.16501727 18.32510046 63.25 15.6875 C64.0275526 12.90126985 63.98726527 11.66561622 63 9 C61.68 8.67 60.36 8.34 59 8 Z M38 13 C37.01 15.97 36.02 18.94 35 22 C35.99 22 36.98 22 38 22 C39.4783226 19.04335481 39.06032783 16.25770263 39 13 C38.67 13 38.34 13 38 13 Z M7 15 C6.87625 16.134375 6.7525 17.26875 6.625 18.4375 C6.41875 19.613125 6.2125 20.78875 6 22 C5.01 22.495 5.01 22.495 4 23 C6.64 23 9.28 23 12 23 C12.33 24.32 12.66 25.64 13 27 C13.33 27 13.66 27 14 27 C14.517487 24.15382151 14.34894002 22.50716808 12.69921875 20.109375 C11.18720079 18.3339267 9.68147909 16.61626937 8 15 C7.67 15 7.34 15 7 15 Z M23 25 C24 27 24 27 24 27 Z " fill="#000000" transform="translate(29,38)"/>
</svg>
